<?xml version="1.0" encoding="UTF-8"?>
<svg width="130px" height="30px" viewBox="0 0 130 30" version="1.1" xmlns="http://www.w3.org/2000/svg" xmlns:xlink="http://www.w3.org/1999/xlink">
    <title>New Logo</title>
    <defs>
        <linearGradient x1="43.9345966%" y1="18.7184279%" x2="82.9035432%" y2="93.2052979%" id="linearGradient-1">
            <stop stop-color="#08A98E" offset="0%"></stop>
            <stop stop-color="#455358" offset="100%"></stop>
        </linearGradient>
    </defs>
    <g id="Page-1" stroke="none" stroke-width="1" fill="none" fill-rule="evenodd">
        <g id="New-Logo">
            <g id="logo" fill-rule="nonzero">
                <path d="M128.374798,0.868433196 C129.079131,0.920081295 129.428852,1.29565763 129.517219,2.00176909 C129.548602,2.25225919 129.539581,2.50846679 129.539581,2.76206975 L129.536214,19.8936742 L129.536214,19.8936742 C129.535832,21.2935092 129.393848,22.6776528 129.06903,24.0408958 C128.619571,25.9275443 127.490492,27.2831639 125.801097,28.1912302 C124.51701,28.8815233 123.112346,29.2147901 121.693008,29.439615 C120.064156,29.6976014 118.417261,29.8254828 116.762807,29.7692607 C116.55145,29.7620821 116.337425,29.7721195 116.129435,29.741372 C115.562068,29.6576424 115.176073,29.3283778 115.105557,28.7744789 C115.036502,28.2321422 115.031674,27.6781162 115.042792,27.1301255 C115.054735,26.5421757 115.420655,26.18642 115.962039,26.0666702 C116.369824,25.9764607 116.800415,25.9715055 117.221604,25.9632469 C118.747796,25.9333253 120.257534,25.7716471 121.749929,25.4479729 C122.416781,25.3033202 123.045325,25.0662979 123.63175,24.7148622 C124.039535,24.4705343 124.397895,24.1678243 124.60544,23.7400917 C125.110359,22.6993793 125.365106,21.6126728 125.157116,20.47273 C124.882866,20.3788995 124.691647,20.4797181 124.492234,20.5461046 C122.541803,21.1954223 120.529941,21.405191 118.488412,21.3233037 C117.560462,21.2860764 116.634925,21.1512704 115.748331,20.8491958 C114.26896,20.3451662 113.323221,19.3660123 113.031756,17.7934452 C112.900444,17.084475 112.797656,16.3770295 112.797465,15.6545914 C112.796131,11.2554185 112.791049,6.85618212 112.787491,2.45694575 C112.787364,2.33008074 112.782917,2.20258045 112.793018,2.07641425 C112.855657,1.29140127 113.184032,0.925099991 113.980988,0.868306141 C114.612073,0.823328461 115.251735,0.825742517 115.88282,0.87180017 C116.523497,0.9184931 116.846981,1.28346029 116.911081,1.94770693 C116.94348,2.28345134 116.933442,2.62370621 116.933569,2.9619282 C116.934903,6.4728554 116.925057,9.9837826 116.941955,13.4946463 C116.94564,14.2531682 117.036993,15.0117536 117.100393,15.7691955 C117.16894,16.588577 117.63606,17.0796469 118.414784,17.279823 C118.782673,17.3743524 119.157487,17.4719946 119.534016,17.4978504 C121.068022,17.6030524 122.577061,17.4425812 124.035532,16.9424269 C125.151271,16.5598625 125.283028,16.3730272 125.285251,15.2004312 C125.292811,11.1819169 125.287919,7.16340255 125.289635,3.14488825 L125.286363,2.57292368 C125.287506,2.38234823 125.294304,2.19235247 125.317015,2.00443725 C125.399156,1.325071 125.796459,0.917286072 126.47303,0.86862378 C127.104116,0.823137877 127.743777,0.822121433 128.374798,0.868433196 Z M82.1647302,0.540083428 C82.8883118,0.580105939 83.5909292,0.724949315 84.2751236,0.947931881 C86.2133566,1.57812762 87.5258409,2.84550716 88.1871653,4.79072829 C88.5022632,5.71823412 88.7188929,6.66860995 88.8033849,7.63359718 C89.0365319,10.2960472 89.0606725,12.9572265 88.4018892,15.575207 C88.0899678,16.8178107 87.5677693,17.9600405 86.7190379,18.9478978 C85.6384301,20.2063834 84.2223955,20.8168855 82.6411887,21.0621028 C81.558675,21.2298162 80.4672675,21.3651304 79.3593427,21.3486132 C78.3371804,21.3333665 77.339794,21.1815351 76.3424076,20.9947634 C76.1753295,20.9636347 76.0158748,20.9223417 75.8437144,21.0106453 C75.6474135,21.4019765 75.737623,21.8320597 75.7350819,22.2481668 C75.7249175,24.0669676 75.7312702,25.8857684 75.730635,27.7045692 C75.7299997,28.0006087 75.7427052,28.2979188 75.7192,28.5920525 C75.6582133,29.3664564 75.305634,29.7184004 74.5039132,29.756517 C73.8711764,29.7870104 73.2339926,29.7857398 72.6012557,29.7546112 C71.9462841,29.722212 71.6794674,29.4566658 71.619116,28.8258348 C71.5867168,28.4904081 71.5975165,28.1498991 71.5975165,27.8119312 C71.5975165,20.1987601 71.5987871,12.5849537 71.6013282,4.97178251 C71.6013282,4.63317935 71.6165749,4.29521148 71.6203865,3.95660832 C71.630551,3.11295918 72.0504697,2.52215068 72.7556283,2.1035025 C73.3794712,1.73250017 74.0598539,1.50189427 74.7542127,1.31512255 C77.1822451,0.661421519 79.6522058,0.400957554 82.1647302,0.540083428 Z M104.252703,0.563601418 C104.753938,0.627764492 105.250725,0.74719675 105.740524,0.876793454 C107.376365,1.30941775 108.335,2.40082529 108.700284,4.02332521 C108.885786,4.84728073 109.012841,5.6814007 109.004583,6.53584956 C108.9923,7.69205545 108.993853,8.84854371 108.996253,10.0049378 L108.998865,11.7394114 L109.008394,11.7394114 L109.008394,16.5624417 C109.008394,16.8584812 109.000136,17.155156 109.005853,17.4511956 C109.028723,18.7477979 108.389633,19.591447 107.237875,20.1250805 C106.150279,20.6294912 105.000426,20.9217191 103.827702,21.0671977 C102.403409,21.2431697 100.971493,21.4038951 99.5268706,21.3410025 C98.50852,21.2958978 97.5060514,21.16376 96.5258175,20.8829671 C95.0024209,20.4471665 93.9319776,19.4853556 93.3240166,18.0331102 C92.5604124,16.2085919 92.4924377,14.3275338 93.0648231,12.4477463 C93.4377313,11.2235657 94.2451696,10.3132124 95.395658,9.72558022 C96.2729769,9.27707398 97.2157294,9.06489114 98.1832577,8.91687137 C99.5252471,8.71082955 100.872232,8.6961711 102.220627,8.70969494 L103.376655,8.72438215 C103.714623,8.72882909 104.053861,8.74852271 104.391194,8.73645243 C104.685328,8.72628798 104.854312,8.54968071 104.867652,8.25554701 C104.904499,7.45128511 104.88544,6.65401126 104.715821,5.85800797 C104.578601,5.21065973 104.217763,4.80027016 103.614884,4.5830051 C102.685473,4.24821361 101.712227,4.15546303 100.743428,4.21708499 C99.3108761,4.30729446 97.8865829,4.4705609 96.4749953,4.78438821 C95.1199474,5.08550997 94.6657236,4.97306577 94.3067916,3.28195583 C94.2635927,3.07676105 94.2686749,2.86140182 94.2546988,2.65048953 C94.2127704,2.01394101 94.5113511,1.58004616 95.1027949,1.39518027 C95.7876245,1.1810916 96.4832539,0.98733182 97.1871419,0.850747058 C99.5256,0.395888035 101.883117,0.259303273 104.252703,0.563601418 Z M60.5036574,0.155104981 C61.1300415,0.24277334 61.7602372,0.36474671 62.3605749,0.557871211 C64.2962669,1.18171417 65.7872643,2.37413091 66.7427223,4.18403783 C67.7877546,6.16419925 68.0621947,8.2644282 67.6435465,10.4605841 C67.5787481,10.7998226 67.3900706,10.9757946 67.0393971,10.9738887 L66.5952584,10.976668 L66.5952584,10.976668 L66.1506433,10.9808768 L57.9603221,10.9810356 L55.2302151,10.9821474 C54.8922472,10.9827826 54.5530087,10.9827826 54.2156761,11.008829 C53.9647413,11.0278874 53.8650027,11.2032241 53.8745319,11.445265 C53.8764377,11.4878286 53.8719908,11.5303922 53.8789788,11.5716853 C54.3370142,14.3027453 55.8515169,16.3311878 58.9364267,16.8095521 C60.1764893,17.0020413 61.3790705,16.9111966 62.5816517,16.6291332 C63.2404349,16.4753959 63.8935007,16.2987886 64.5516486,16.1425103 C64.838159,16.0745355 65.1297516,15.9995727 65.4213442,15.9855966 C65.935284,15.9608208 66.3723553,16.2238258 66.5013167,16.6964726 C66.6563245,17.2637759 66.753522,17.8520433 66.8240379,18.4371343 C66.8862951,18.9555211 66.6042317,19.3227118 66.1601724,19.5653879 C66.0496341,19.6257393 65.9263901,19.6651266 65.8056873,19.7038785 C63.9913335,20.2838873 62.1661799,20.9204358 60.2584401,20.9776108 C54.457717,21.1529476 49.6664506,17.5617212 49.2522494,11.4331947 C49.1436169,9.82212977 49.2344616,8.22948791 49.7490368,6.66924523 C51.3944067,1.68040737 56.041465,-0.468102702 60.5036574,0.155104981 Z M40.3057378,0.512791886 C42.3386908,1.11878354 43.7343965,2.43793823 44.5555568,4.39522964 C45.17184,5.86430993 45.4305252,7.40447783 45.4488212,8.97418615 C45.4680701,10.6245113 45.4715165,12.2750428 45.4698965,13.92563 L45.4605738,18.8774073 C45.4604468,19.1303115 45.4622891,19.388679 45.4143256,19.6349763 C45.3060107,20.1904633 44.94098,20.5560023 44.3781237,20.5861145 C43.6185854,20.6267087 42.8533295,20.6307745 42.0942994,20.586305 C41.4753481,20.5500942 41.0807134,20.1513302 40.9922827,19.545148 C40.943811,19.2127705 40.959693,18.869911 40.9594389,18.531689 C40.9569613,15.6115068 40.9630599,12.6912611 40.9536578,9.77107883 C40.950545,8.79916707 40.9323125,7.83138462 40.6715309,6.87586303 C40.2892841,5.47532923 39.4498914,4.60881009 38.0113679,4.2984768 C36.6080389,3.99570333 35.2401584,4.08140232 33.8828235,4.51783829 C33.433809,4.66223697 33.0321228,4.89347815 32.6552759,5.1701417 C31.9295979,5.7028858 31.5595485,6.36166905 31.571174,7.32239991 C31.6162153,11.0462088 31.5901689,14.7708435 31.588263,18.4952241 C31.5880724,18.8756921 31.5999521,19.2593999 31.5568803,19.6359292 C31.4997688,20.1352577 31.1598951,20.5335134 30.6609478,20.5641974 C29.8188868,20.6159725 28.9686308,20.6193395 28.1270146,20.5634986 C27.5907129,20.5279865 27.2509027,20.0893906 27.1927748,19.5204992 C27.1627897,19.2270008 27.1768928,18.9286107 27.1768928,18.6324441 C27.1767658,13.2152383 27.177147,7.79803253 27.1786716,2.38082674 C27.1787987,2.08485074 27.1655214,1.78588893 27.2010969,1.49347048 C27.2693893,0.932837676 27.6261614,0.571110403 28.1889542,0.503135661 C28.5233645,0.462795511 28.865144,0.47492932 29.2034931,0.476771626 C30.5633691,0.484267906 30.6564373,0.553195565 31.1180938,1.88835926 C31.5220671,1.85170372 31.7331699,1.62255896 31.9856929,1.47587328 C34.6194283,-0.054701919 37.4011199,-0.353028451 40.3057378,0.512791886 Z M99.5776928,12.252716 C99.1183869,12.2863857 98.6590809,12.3962888 98.2131158,12.5188975 C97.4501469,12.7291745 96.9832176,13.2539141 96.8459976,14.0264121 C96.741812,14.6102325 96.7360945,15.2118407 96.8860201,15.7893084 C97.1248846,16.7136379 97.6680473,17.3578097 98.6457401,17.5833334 C100.423248,17.9924524 102.166451,17.7910693 103.902665,17.335575 C104.521426,17.1729438 104.828265,16.7600131 104.858759,16.1514169 C104.87824,15.757968 104.87457,15.3636722 104.869958,14.9692822 L104.865111,14.3777208 L104.879723,14.3777208 C104.879723,13.8701337 104.892428,13.3631819 104.875911,12.8562301 C104.859394,12.3727835 104.76029,12.264151 104.266679,12.2425515 C102.703896,12.172671 101.139206,12.138366 99.5776928,12.252716 Z M76.8658767,4.71767132 C75.7973391,5.02895752 75.7204705,5.46602876 75.7280938,6.28871373 C75.7378348,7.33226366 75.7365642,8.37609595 75.7346349,9.42002234 L75.7325408,10.985959 L75.730635,10.985959 L75.730635,15.0479263 C75.7312702,15.4290931 75.7388936,15.8096246 75.7382583,16.1907914 C75.7369877,16.7333188 76.027945,17.0534989 76.5209207,17.2142242 C76.6810108,17.266317 76.8487242,17.2974456 77.0132612,17.3342917 C78.4826591,17.6627304 79.9488806,17.6131787 81.4208197,17.3330212 C82.996309,17.03317 83.9911543,16.1685567 84.3602508,14.5714679 C84.5590021,13.7106662 84.6423661,12.840465 84.7066533,11.9687359 L84.7808048,10.9224312 L84.7808048,10.9224312 C84.8659321,9.77829559 84.6277029,8.64750081 84.5279642,7.51098853 C84.4987414,7.17937343 84.3710506,6.85347584 84.2706766,6.53075463 C83.8818865,5.28306871 83.0566604,4.56075766 81.750529,4.3263401 C80.0803832,4.0264889 78.4585185,4.25264785 76.8658767,4.71767132 Z M58.1016715,4.17006172 C56.3876915,4.4127379 55.154617,5.33325567 54.4659757,6.9411442 C54.2639573,7.41188517 54.4062595,7.62660912 54.9519633,7.63105607 L56.8466798,7.63669416 L56.8466798,7.63669416 L58.7413964,7.63423246 C59.7514883,7.63677357 60.7622156,7.6386794 61.7723075,7.63550301 C62.1509332,7.63359718 62.5301941,7.63232662 62.9075493,7.60310384 C63.0955915,7.58785716 63.197236,7.43475518 63.1705543,7.2467129 C62.9825121,5.93041696 62.2570246,4.81740996 60.8505192,4.38033872 C59.9477892,4.09954586 59.0228245,4.03982973 58.1016715,4.17006172 Z" id="Combined-Shape" fill="#455358"></path>
                <path d="M10.5784791,8.66922187e-06 C11.5309655,0.00209315996 12.3212256,0.376106163 12.7902439,1.24060289 C13.5773597,2.69158666 12.7240154,4.41644663 11.0840903,4.70985683 C10.6040339,4.79572648 10.1132739,4.82399413 9.63488997,4.91673069 C6.90560618,5.44608243 4.72133624,8.06850693 4.74869732,11.080745 C4.77826601,14.3404583 7.53925921,17.3658302 11.2677908,17.2330922 C14.3215274,17.1244885 16.81473,14.7926074 17.190627,11.7363011 C17.2390607,11.3422874 17.2900366,10.9374067 17.4226275,10.5669938 C17.8109674,9.48182273 18.8433294,8.86600132 19.938642,9.0186733 C21.0966376,9.18001224 21.9400142,10.1006443 21.9924619,11.2850855 C22.0588911,12.7838042 21.6815892,14.205587 21.0455948,15.5335665 C19.3798473,19.0114874 16.6375185,21.1278943 12.8087745,21.8311188 C7.56360989,22.7945523 2.13300547,19.5488394 0.491943142,14.320791 C0.144009298,13.2126858 -0.0469830354,12.0797797 0.00994672839,11.0112759 C-0.0790269331,5.59535428 4.05189306,0.947459359 9.12446213,0.178899307 C9.6075958,0.105696762 10.0938737,-0.00110695129 10.5784791,8.66922187e-06 Z" id="Combined-Shape" fill="url(#linearGradient-1)"></path>
            </g>
            <path d="M17.2970274,2.56256218 C18.3292557,2.57582931 19.5194958,3.65420013 19.5079895,4.94564503 C19.4653089,6.22108937 18.3661162,7.26825911 17.0745933,7.2638865 C15.8016009,7.25952547 14.7212734,6.13908652 14.7555249,4.85870867 C14.7928537,3.46706029 15.8643508,2.54416154 17.2970274,2.56256218 Z" id="Combined-Shape-path" fill="#08A98E"></path>
        </g>
    </g>
</svg>